<?xml version="1.0" encoding="UTF-8"?>
<svg xmlns="http://www.w3.org/2000/svg" xmlns:xlink="http://www.w3.org/1999/xlink" viewBox="0 0 1384.00 859.65" width="1384.00" height="859.65">
  <title>Diagram1</title>
  <defs>
    <style>
      /* Icon size classes - use CSS to define sizes once instead of on every element */
      .icon { width: 16px; height: 16px; }
      .icon-sm { width: 14px; height: 14px; }
      /* Icon fill classes */
      .icon-shadow { fill: #212121; opacity: 0.1; }
      .icon-fill { fill: #212121; opacity: 1; }
      .icon-accent-shadow { fill: #ffffff; opacity: 0.1; }
      .icon-accent { fill: #ffffff; opacity: 1; }
      .icon-blue { fill: #005dba; opacity: 1; }
      .icon-muted { opacity: 0.75; }
      /* Text classes */
      .text-base { font-family: Segoe UI, Arial, sans-serif; }
      .text-compartment { font-size: 11px; fill: #000000; }
      .text-header { font-size: 11px; fill: #FFFFFF; }
      .text-entity { font-size: 12px; font-weight: bold; }
      .text-property { font-size: 11px; fill: #000000; }
      .text-mult { font-size: 11px; fill: #000000; font-weight: bold; }
      /* Shape classes */
      .header-compartment { fill: #E0E0E0; height: 24px; }
      /* Connector line styles */
      .line { fill: none; stroke-width: 1.5px; }
      .association { stroke: #778899; stroke-dasharray: 5,3; }
      .inheritance { stroke: #4682B4; }
      /* Marker styles */
      .diamond { fill: #778899; stroke: #778899; }
      .arrow-hollow { fill: none; stroke: #4682B4; stroke-width: 1.5px; }
    </style>
    <marker id="diamond" viewBox="0 0 12 12" refX="6" refY="6" markerWidth="6.00" markerHeight="6.00" orient="auto">
      <polygon points="6,1 11,6 6,11 1,6" class="diamond"/>
    </marker>
    <marker id="inheritance-arrow" viewBox="0 0 12 12" refX="12" refY="6" markerWidth="8.00" markerHeight="8.00" orient="auto">
      <polygon points="0,0 12,6 0,12" class="arrow-hollow"/>
    </marker>
    <symbol id="icon-Class" viewBox="0 0 16 16" width="16" height="16">
      <path class="icon-accent-shadow" d="M5.5.5l3,3-5,5-3-3Zm10,6-2-2-3,3,2,2Zm-5,7,2,2,3-3-2-2Z" />
      <path class="icon-accent" d="M10.146,7.854l2,2h.708l3-3V6.146l-2-2h-.708L11.293,6H6.707L8.854,3.854V3.146l-3-3H5.146l-5,5v.708l3,3h.708L5.707,7H8v5.5l.5.5h1.793l-.147.146v.708l2,2h.708l3-3v-.708l-2-2h-.708L11.293,12H9V7h1.293l-.147.146ZM3.5,7.793,1.207,5.5,5.5,1.207,7.793,3.5Zm10,3.414L14.793,12.5,12.5,14.793,11.207,13.5Zm0-6L14.793,6.5,12.5,8.793,11.207,7.5Z" />
    </symbol>
    <symbol id="icon-Collapse" viewBox="0 0 16 16" width="16" height="16">
      <path class="icon-shadow" d="M11.5,3.5v8h-8v-8Z" />
      <path class="icon-fill" d="M11.5,3h-8L3,3.5v8l.5.5h8l.5-.5v-8ZM11,11H4V4h7ZM10,8H5V7h5Z" />
    </symbol>
    <symbol id="icon-NavigationProperty" viewBox="0 0 16 16" width="16" height="16">
      <path class="icon-shadow" d="M14.5,1.5v12H9.328L6.859,11.031c.01-.033.013-.067.021-.1q.03-.123.051-.249A3.819,3.819,0,0,0,7,10,3.988,3.988,0,0,0,3.5,6.05V1.5Z" />
      <path class="icon-fill" d="M9,14.586v.707L8.293,16H7.586l-3.3-3.3A2.969,2.969,0,0,1,3,13a3,3,0,0,1-3-3A2.969,2.969,0,0,1,.3,8.714l1.993,1.993L3.707,9.293,1.714,7.3A2.969,2.969,0,0,1,3,7a3,3,0,0,1,3,3,2.969,2.969,0,0,1-.3,1.286Z" />
      <path class="icon-fill" d="M15,1.5v12l-.5.5H9.828l-1-1H14V2H4V6.141A3.977,3.977,0,0,0,3,6V1.5L3.5,1h11Z" />
      <path class="icon-blue" d="M7.146,7.854l-2-2V5.146l2-2,.708.708L6.707,5H12V6H6.707L7.854,7.146Zm3.708-.708-.708.708L11.293,9H6.859A3.977,3.977,0,0,1,7,10h4.293l-1.147,1.146.708.708,2-2V9.146Z" />
    </symbol>
    <symbol id="icon-Property" viewBox="0 0 16 16" width="16" height="16">
      <g class="icon-muted">
      <path class="icon-shadow" d="M10.242,7.167c-1.722,1.75-5.418,5.45-7.191,7.1-.861.75-2.076-.651-1.418-1.4,1.671-1.75,5.418-5.449,7.14-7.1a1.078,1.078,0,0,1,.659-.25A1.026,1.026,0,0,1,10.242,7.167Z" />
      <path class="icon-fill" d="M10.828,5.938a1.508,1.508,0,0,0-1.4-.921,1.628,1.628,0,0,0-1.005.388c-1.714,1.643-5.473,5.355-7.17,7.131a1.444,1.444,0,0,0,.187,1.973,1.5,1.5,0,0,0,1.056.47,1.352,1.352,0,0,0,.892-.346C5.254,12.9,9.051,9.09,10.61,7.506A1.45,1.45,0,0,0,10.828,5.938Zm-.942.878C8.344,8.384,4.561,12.178,2.723,13.89a.4.4,0,0,1-.571-.087C2,13.653,1.86,13.365,2,13.212c1.673-1.753,5.417-5.448,7.076-7.044a.575.575,0,0,1,.361-.151.513.513,0,0,1,.48.322A.465.465,0,0,1,9.886,6.816Z" />
    </g>
      <path class="icon-fill" d="M14.974,5a4,4,0,0,1-8,0,3.961,3.961,0,0,1,4-4,4.19,4.19,0,0,1,1.441.241L9.534,4.2l2.24,2.241,2.96-2.882A4.19,4.19,0,0,1,14.974,5Z" />
    </symbol>
    <symbol id="icon-PropertyKey" viewBox="0 0 16 16" width="16" height="16">
      <g class="icon-muted">
      <path class="icon-shadow" d="M8,8.451c-1.883,1.894-4.507,4.5-5.92,5.816-.861.75-2.077-.651-1.418-1.4,1.335-1.4,3.981-4.026,5.875-5.874A3.924,3.924,0,0,0,8,8.451Z" />
      <path class="icon-fill" d="M8.475,8.679c-1.83,1.842-4.561,4.56-6.057,5.954a1.352,1.352,0,0,1-.892.346,1.5,1.5,0,0,1-1.056-.47,1.444,1.444,0,0,1-.187-1.973c1.383-1.448,4.122-4.167,6.022-6.018a3.9,3.9,0,0,0,.506.9c-1.858,1.817-4.466,4.408-5.791,5.8-.134.153.009.441.158.591a.4.4,0,0,0,.57.087C3.173,12.563,5.755,10,7.567,8.174A4,4,0,0,0,8.475,8.679Z" />
    </g>
      <path class="icon-fill" d="M14,5A4,4,0,0,1,6,5a3.961,3.961,0,0,1,4-4,4.19,4.19,0,0,1,1.441.241L8.559,4.2,10.8,6.441l2.959-2.882A4.19,4.19,0,0,1,14,5Z" />
      <path class="icon-shadow" d="M14.769,14.769a2.5,2.5,0,0,1-3.535,0A2.462,2.462,0,0,1,10.716,14H7.637l-1-1,1-1h3.079a2.457,2.457,0,0,1,.518-.767,2.5,2.5,0,0,1,3.535,3.535Z" />
      <path class="icon-fill" d="M7.284,14.355l-1-1v-.707l1-1,.353-.146h2.771a2.9,2.9,0,0,1,.472-.622,3,3,0,1,1,0,4.243,2.948,2.948,0,0,1-.472-.622H7.637ZM7.345,13l.5.5h2.872l.458.3a2,2,0,1,0,.413-2.214,1.986,1.986,0,0,0-.413.614l-.458.3H7.844Zm6.717.354a.5.5,0,1,1,0-.707A.5.5,0,0,1,14.062,13.355Z" />
    </symbol>
  </defs>
  <g id="assoc_Order_OrderDetail" class="association-connector">
    <path d="M 660.00 277.51 L 736.00 277.51" class="line association" marker-start="url(#diamond)" marker-end="url(#diamond)"/>
    <text x="664.00" y="293.51" class="text-base text-mult">1</text>
    <text x="732.00" y="293.51" class="text-base text-mult" text-anchor="end">*</text>
  </g>
  <g id="assoc_Product_OrderDetail" class="association-connector">
    <path d="M 976.00 277.51 L 888.00 277.51" class="line association" marker-start="url(#diamond)" marker-end="url(#diamond)"/>
    <text x="972.00" y="293.51" class="text-base text-mult" text-anchor="end">1</text>
    <text x="892.00" y="293.51" class="text-base text-mult">*</text>
  </g>
  <g id="assoc_Shipper_Order" class="association-connector">
    <path d="M 584.00 664.00 L 584.00 598.10" class="line association" marker-start="url(#diamond)" marker-end="url(#diamond)"/>
    <text x="592.00" y="660.00" class="text-base text-mult">0..1</text>
    <text x="592.00" y="610.10" class="text-base text-mult">*</text>
  </g>
  <g id="assoc_Supplier_Product" class="association-connector">
    <path d="M 1216.00 254.90 L 1128.00 254.90" class="line association" marker-start="url(#diamond)" marker-end="url(#diamond)"/>
    <text x="1212.00" y="270.90" class="text-base text-mult" text-anchor="end">0..1</text>
    <text x="1132.00" y="270.90" class="text-base text-mult">*</text>
  </g>
  <g id="assoc_Region_Territory" class="association-connector">
    <path d="M 92.00 484.00 L 92.00 406.11" class="line association" marker-start="url(#diamond)" marker-end="url(#diamond)"/>
    <text x="100.00" y="480.00" class="text-base text-mult">1</text>
    <text x="100.00" y="418.11" class="text-base text-mult">*</text>
  </g>
  <g id="assoc_Category_Product" class="association-connector">
    <path d="M 1216.00 458.90 L 1128.00 458.90" class="line association" marker-start="url(#diamond)" marker-end="url(#diamond)"/>
    <text x="1212.00" y="474.90" class="text-base text-mult" text-anchor="end">0..1</text>
    <text x="1132.00" y="474.90" class="text-base text-mult">*</text>
  </g>
  <g id="assoc_Customer_Order" class="association-connector">
    <path d="M 736.00 523.05 L 660.00 523.05" class="line association" marker-start="url(#diamond)" marker-end="url(#diamond)"/>
    <text x="732.00" y="539.05" class="text-base text-mult" text-anchor="end">0..1</text>
    <text x="664.00" y="539.05" class="text-base text-mult">*</text>
  </g>
  <g id="assoc_Employee_Employee" class="association-connector">
    <path d="M 311.06 623.94 L 311.06 643.94 L 353.93 643.94 L 353.93 623.94" class="line association" marker-start="url(#diamond)" marker-end="url(#diamond)"/>
    <text x="319.06" y="635.94" class="text-base text-mult">0..1</text>
    <text x="361.93" y="635.94" class="text-base text-mult">*</text>
  </g>
  <g id="assoc_Employee_Order" class="association-connector">
    <path d="M 408.00 379.05 L 508.00 379.05" class="line association" marker-start="url(#diamond)" marker-end="url(#diamond)"/>
    <text x="412.00" y="395.05" class="text-base text-mult">0..1</text>
    <text x="504.00" y="395.05" class="text-base text-mult" text-anchor="end">*</text>
  </g>
  <g id="assoc_Employee_Territory" class="association-connector">
    <path d="M 256.00 307.05 L 168.00 307.05" class="line association" marker-start="url(#diamond)" marker-end="url(#diamond)"/>
    <text x="252.00" y="323.05" class="text-base text-mult" text-anchor="end">*</text>
    <text x="172.00" y="323.05" class="text-base text-mult">*</text>
  </g>
  <g id="entity_OrderDetail" class="entity-shape">
    <rect x="740.00" y="164.00" width="144.00" height="227.03" rx="3.00" fill="#007ACC" stroke="#1AA3FF" stroke-width="1"/>
    <path d="M 743.00 164.00 L 881.00 164.00 L 881.00 194.00 L 743.00 194.00 Z" fill="#000000" fill-opacity="0.2"/>
    <text x="768.00" y="183.20" fill="#FFFFFF" class="text-base text-entity">OrderDetail</text>
    <use href="#icon-Class" x="748.00" y="171.00" class="icon"/>
    <rect x="740.00" y="194.00" width="144.00" class="header-compartment"/>
    <use href="#icon-Collapse" x="742.00" y="199.00" class="icon-sm"/>
    <text x="760.00" y="209.85" class="text-base text-compartment">Properties</text>
    <rect x="740.00" y="218.00" width="144.00" height="94.00" fill="#FFFFFF"/>
    <line x1="740.00" y1="218.00" x2="884.00" y2="218.00" stroke="#000000" stroke-width="1" stroke-opacity="0.3"/>
    <use href="#icon-PropertyKey" x="744.00" y="222.00" class="icon-sm"/>
    <text x="764.00" y="232.85" class="text-base text-property">OrderID</text>
    <use href="#icon-PropertyKey" x="744.00" y="240.00" class="icon-sm"/>
    <text x="764.00" y="250.85" class="text-base text-property">ProductID</text>
    <use href="#icon-Property" x="744.00" y="258.00" class="icon-sm"/>
    <text x="764.00" y="268.85" class="text-base text-property">UnitPrice</text>
    <use href="#icon-Property" x="744.00" y="276.00" class="icon-sm"/>
    <text x="764.00" y="286.85" class="text-base text-property">Quantity</text>
    <use href="#icon-Property" x="744.00" y="294.00" class="icon-sm"/>
    <text x="764.00" y="304.85" class="text-base text-property">Discount</text>
    <rect x="740.00" y="310.00" width="144.00" class="header-compartment"/>
    <use href="#icon-Collapse" x="742.00" y="315.00" class="icon-sm"/>
    <text x="760.00" y="325.85" class="text-base text-compartment">Navigation Properties</text>
    <rect x="740.00" y="334.00" width="144.00" height="40.00" fill="#FFFFFF"/>
    <line x1="740.00" y1="334.00" x2="884.00" y2="334.00" stroke="#000000" stroke-width="1" stroke-opacity="0.3"/>
    <use href="#icon-NavigationProperty" x="744.00" y="338.00" class="icon-sm"/>
    <text x="764.00" y="348.85" class="text-base text-property">Order</text>
    <use href="#icon-NavigationProperty" x="744.00" y="356.00" class="icon-sm"/>
    <text x="764.00" y="366.85" class="text-base text-property">Product</text>
  </g>
  <g id="entity_Order" class="entity-shape">
    <rect x="512.00" y="164.00" width="144.00" height="430.10" rx="3.00" fill="#007ACC" stroke="#1AA3FF" stroke-width="1"/>
    <path d="M 515.00 164.00 L 653.00 164.00 L 653.00 194.00 L 515.00 194.00 Z" fill="#000000" fill-opacity="0.2"/>
    <text x="540.00" y="183.20" fill="#FFFFFF" class="text-base text-entity">Order</text>
    <use href="#icon-Class" x="520.00" y="171.00" class="icon"/>
    <rect x="512.00" y="194.00" width="144.00" class="header-compartment"/>
    <use href="#icon-Collapse" x="514.00" y="199.00" class="icon-sm"/>
    <text x="532.00" y="209.85" class="text-base text-compartment">Properties</text>
    <rect x="512.00" y="218.00" width="144.00" height="256.00" fill="#FFFFFF"/>
    <line x1="512.00" y1="218.00" x2="656.00" y2="218.00" stroke="#000000" stroke-width="1" stroke-opacity="0.3"/>
    <use href="#icon-PropertyKey" x="516.00" y="222.00" class="icon-sm"/>
    <text x="536.00" y="232.85" class="text-base text-property">OrderID</text>
    <use href="#icon-Property" x="516.00" y="240.00" class="icon-sm"/>
    <text x="536.00" y="250.85" class="text-base text-property">CustomerID</text>
    <use href="#icon-Property" x="516.00" y="258.00" class="icon-sm"/>
    <text x="536.00" y="268.85" class="text-base text-property">EmployeeID</text>
    <use href="#icon-Property" x="516.00" y="276.00" class="icon-sm"/>
    <text x="536.00" y="286.85" class="text-base text-property">OrderDate</text>
    <use href="#icon-Property" x="516.00" y="294.00" class="icon-sm"/>
    <text x="536.00" y="304.85" class="text-base text-property">RequiredDate</text>
    <use href="#icon-Property" x="516.00" y="312.00" class="icon-sm"/>
    <text x="536.00" y="322.85" class="text-base text-property">ShippedDate</text>
    <use href="#icon-Property" x="516.00" y="330.00" class="icon-sm"/>
    <text x="536.00" y="340.85" class="text-base text-property">ShipVia</text>
    <use href="#icon-Property" x="516.00" y="348.00" class="icon-sm"/>
    <text x="536.00" y="358.85" class="text-base text-property">Freight</text>
    <use href="#icon-Property" x="516.00" y="366.00" class="icon-sm"/>
    <text x="536.00" y="376.85" class="text-base text-property">ShipName</text>
    <use href="#icon-Property" x="516.00" y="384.00" class="icon-sm"/>
    <text x="536.00" y="394.85" class="text-base text-property">ShipAddress</text>
    <use href="#icon-Property" x="516.00" y="402.00" class="icon-sm"/>
    <text x="536.00" y="412.85" class="text-base text-property">ShipCity</text>
    <use href="#icon-Property" x="516.00" y="420.00" class="icon-sm"/>
    <text x="536.00" y="430.85" class="text-base text-property">ShipRegion</text>
    <use href="#icon-Property" x="516.00" y="438.00" class="icon-sm"/>
    <text x="536.00" y="448.85" class="text-base text-property">ShipPostalCode</text>
    <use href="#icon-Property" x="516.00" y="456.00" class="icon-sm"/>
    <text x="536.00" y="466.85" class="text-base text-property">ShipCountry</text>
    <rect x="512.00" y="472.00" width="144.00" class="header-compartment"/>
    <use href="#icon-Collapse" x="514.00" y="477.00" class="icon-sm"/>
    <text x="532.00" y="487.85" class="text-base text-compartment">Navigation Properties</text>
    <rect x="512.00" y="496.00" width="144.00" height="76.00" fill="#FFFFFF"/>
    <line x1="512.00" y1="496.00" x2="656.00" y2="496.00" stroke="#000000" stroke-width="1" stroke-opacity="0.3"/>
    <use href="#icon-NavigationProperty" x="516.00" y="500.00" class="icon-sm"/>
    <text x="536.00" y="510.85" class="text-base text-property">OrderDetails</text>
    <use href="#icon-NavigationProperty" x="516.00" y="518.00" class="icon-sm"/>
    <text x="536.00" y="528.85" class="text-base text-property">Shipper</text>
    <use href="#icon-NavigationProperty" x="516.00" y="536.00" class="icon-sm"/>
    <text x="536.00" y="546.85" class="text-base text-property">Customer</text>
    <use href="#icon-NavigationProperty" x="516.00" y="554.00" class="icon-sm"/>
    <text x="536.00" y="564.85" class="text-base text-property">Employee</text>
  </g>
  <g id="entity_Product" class="entity-shape">
    <rect x="980.00" y="152.00" width="144.00" height="337.80" rx="3.00" fill="#00C0C0" stroke="#0EFFFF" stroke-width="1"/>
    <path d="M 983.00 152.00 L 1121.00 152.00 L 1121.00 182.00 L 983.00 182.00 Z" fill="#000000" fill-opacity="0.2"/>
    <text x="1008.00" y="171.20" fill="#FFFFFF" class="text-base text-entity">Product</text>
    <use href="#icon-Class" x="988.00" y="159.00" class="icon"/>
    <rect x="980.00" y="182.00" width="144.00" class="header-compartment"/>
    <use href="#icon-Collapse" x="982.00" y="187.00" class="icon-sm"/>
    <text x="1000.00" y="197.85" class="text-base text-compartment">Properties</text>
    <rect x="980.00" y="206.00" width="144.00" height="184.00" fill="#FFFFFF"/>
    <line x1="980.00" y1="206.00" x2="1124.00" y2="206.00" stroke="#000000" stroke-width="1" stroke-opacity="0.3"/>
    <use href="#icon-PropertyKey" x="984.00" y="210.00" class="icon-sm"/>
    <text x="1004.00" y="220.85" class="text-base text-property">ProductID</text>
    <use href="#icon-Property" x="984.00" y="228.00" class="icon-sm"/>
    <text x="1004.00" y="238.85" class="text-base text-property">ProductName</text>
    <use href="#icon-Property" x="984.00" y="246.00" class="icon-sm"/>
    <text x="1004.00" y="256.85" class="text-base text-property">SupplierID</text>
    <use href="#icon-Property" x="984.00" y="264.00" class="icon-sm"/>
    <text x="1004.00" y="274.85" class="text-base text-property">CategoryID</text>
    <use href="#icon-Property" x="984.00" y="282.00" class="icon-sm"/>
    <text x="1004.00" y="292.85" class="text-base text-property">QuantityPerUnit</text>
    <use href="#icon-Property" x="984.00" y="300.00" class="icon-sm"/>
    <text x="1004.00" y="310.85" class="text-base text-property">UnitPrice</text>
    <use href="#icon-Property" x="984.00" y="318.00" class="icon-sm"/>
    <text x="1004.00" y="328.85" class="text-base text-property">UnitsInStock</text>
    <use href="#icon-Property" x="984.00" y="336.00" class="icon-sm"/>
    <text x="1004.00" y="346.85" class="text-base text-property">UnitsOnOrder</text>
    <use href="#icon-Property" x="984.00" y="354.00" class="icon-sm"/>
    <text x="1004.00" y="364.85" class="text-base text-property">ReorderLevel</text>
    <use href="#icon-Property" x="984.00" y="372.00" class="icon-sm"/>
    <text x="1004.00" y="382.85" class="text-base text-property">Discontinued</text>
    <rect x="980.00" y="388.00" width="144.00" class="header-compartment"/>
    <use href="#icon-Collapse" x="982.00" y="393.00" class="icon-sm"/>
    <text x="1000.00" y="403.85" class="text-base text-compartment">Navigation Properties</text>
    <rect x="980.00" y="412.00" width="144.00" height="58.00" fill="#FFFFFF"/>
    <line x1="980.00" y1="412.00" x2="1124.00" y2="412.00" stroke="#000000" stroke-width="1" stroke-opacity="0.3"/>
    <use href="#icon-NavigationProperty" x="984.00" y="416.00" class="icon-sm"/>
    <text x="1004.00" y="426.85" class="text-base text-property">OrderDetails</text>
    <use href="#icon-NavigationProperty" x="984.00" y="434.00" class="icon-sm"/>
    <text x="1004.00" y="444.85" class="text-base text-property">Supplier</text>
    <use href="#icon-NavigationProperty" x="984.00" y="452.00" class="icon-sm"/>
    <text x="1004.00" y="462.85" class="text-base text-property">Category</text>
  </g>
  <g id="entity_Region" class="entity-shape">
    <rect x="20.00" y="488.00" width="144.00" height="153.19" rx="3.00" fill="#800080" stroke="#CC00CC" stroke-width="1"/>
    <path d="M 23.00 488.00 L 161.00 488.00 L 161.00 518.00 L 23.00 518.00 Z" fill="#000000" fill-opacity="0.2"/>
    <text x="48.00" y="507.20" fill="#FFFFFF" class="text-base text-entity">Region</text>
    <use href="#icon-Class" x="28.00" y="495.00" class="icon"/>
    <rect x="20.00" y="518.00" width="144.00" class="header-compartment"/>
    <use href="#icon-Collapse" x="22.00" y="523.00" class="icon-sm"/>
    <text x="40.00" y="533.85" class="text-base text-compartment">Properties</text>
    <rect x="20.00" y="542.00" width="144.00" height="40.00" fill="#FFFFFF"/>
    <line x1="20.00" y1="542.00" x2="164.00" y2="542.00" stroke="#000000" stroke-width="1" stroke-opacity="0.3"/>
    <use href="#icon-PropertyKey" x="24.00" y="546.00" class="icon-sm"/>
    <text x="44.00" y="556.85" class="text-base text-property">RegionID</text>
    <use href="#icon-Property" x="24.00" y="564.00" class="icon-sm"/>
    <text x="44.00" y="574.85" class="text-base text-property">RegionDescription</text>
    <rect x="20.00" y="580.00" width="144.00" class="header-compartment"/>
    <use href="#icon-Collapse" x="22.00" y="585.00" class="icon-sm"/>
    <text x="40.00" y="595.85" class="text-base text-compartment">Navigation Properties</text>
    <rect x="20.00" y="604.00" width="144.00" height="22.00" fill="#FFFFFF"/>
    <line x1="20.00" y1="604.00" x2="164.00" y2="604.00" stroke="#000000" stroke-width="1" stroke-opacity="0.3"/>
    <use href="#icon-NavigationProperty" x="24.00" y="608.00" class="icon-sm"/>
    <text x="44.00" y="618.85" class="text-base text-property">Territories</text>
  </g>
  <g id="entity_Shipper" class="entity-shape">
    <rect x="512.00" y="668.00" width="144.00" height="171.65" rx="3.00" fill="#007ACC" stroke="#1AA3FF" stroke-width="1"/>
    <path d="M 515.00 668.00 L 653.00 668.00 L 653.00 698.00 L 515.00 698.00 Z" fill="#000000" fill-opacity="0.2"/>
    <text x="540.00" y="687.20" fill="#FFFFFF" class="text-base text-entity">Shipper</text>
    <use href="#icon-Class" x="520.00" y="675.00" class="icon"/>
    <rect x="512.00" y="698.00" width="144.00" class="header-compartment"/>
    <use href="#icon-Collapse" x="514.00" y="703.00" class="icon-sm"/>
    <text x="532.00" y="713.85" class="text-base text-compartment">Properties</text>
    <rect x="512.00" y="722.00" width="144.00" height="58.00" fill="#FFFFFF"/>
    <line x1="512.00" y1="722.00" x2="656.00" y2="722.00" stroke="#000000" stroke-width="1" stroke-opacity="0.3"/>
    <use href="#icon-PropertyKey" x="516.00" y="726.00" class="icon-sm"/>
    <text x="536.00" y="736.85" class="text-base text-property">ShipperID</text>
    <use href="#icon-Property" x="516.00" y="744.00" class="icon-sm"/>
    <text x="536.00" y="754.85" class="text-base text-property">CompanyName</text>
    <use href="#icon-Property" x="516.00" y="762.00" class="icon-sm"/>
    <text x="536.00" y="772.85" class="text-base text-property">Phone</text>
    <rect x="512.00" y="778.00" width="144.00" class="header-compartment"/>
    <use href="#icon-Collapse" x="514.00" y="783.00" class="icon-sm"/>
    <text x="532.00" y="793.85" class="text-base text-compartment">Navigation Properties</text>
    <rect x="512.00" y="802.00" width="144.00" height="22.00" fill="#FFFFFF"/>
    <line x1="512.00" y1="802.00" x2="656.00" y2="802.00" stroke="#000000" stroke-width="1" stroke-opacity="0.3"/>
    <use href="#icon-NavigationProperty" x="516.00" y="806.00" class="icon-sm"/>
    <text x="536.00" y="816.85" class="text-base text-property">Orders</text>
  </g>
  <g id="entity_Supplier" class="entity-shape">
    <rect x="1220.00" y="20.00" width="144.00" height="337.80" rx="3.00" fill="#00C0C0" stroke="#0EFFFF" stroke-width="1"/>
    <path d="M 1223.00 20.00 L 1361.00 20.00 L 1361.00 50.00 L 1223.00 50.00 Z" fill="#000000" fill-opacity="0.2"/>
    <text x="1248.00" y="39.20" fill="#FFFFFF" class="text-base text-entity">Supplier</text>
    <use href="#icon-Class" x="1228.00" y="27.00" class="icon"/>
    <rect x="1220.00" y="50.00" width="144.00" class="header-compartment"/>
    <use href="#icon-Collapse" x="1222.00" y="55.00" class="icon-sm"/>
    <text x="1240.00" y="65.85" class="text-base text-compartment">Properties</text>
    <rect x="1220.00" y="74.00" width="144.00" height="220.00" fill="#FFFFFF"/>
    <line x1="1220.00" y1="74.00" x2="1364.00" y2="74.00" stroke="#000000" stroke-width="1" stroke-opacity="0.3"/>
    <use href="#icon-PropertyKey" x="1224.00" y="78.00" class="icon-sm"/>
    <text x="1244.00" y="88.85" class="text-base text-property">SupplierID</text>
    <use href="#icon-Property" x="1224.00" y="96.00" class="icon-sm"/>
    <text x="1244.00" y="106.85" class="text-base text-property">CompanyName</text>
    <use href="#icon-Property" x="1224.00" y="114.00" class="icon-sm"/>
    <text x="1244.00" y="124.85" class="text-base text-property">ContactName</text>
    <use href="#icon-Property" x="1224.00" y="132.00" class="icon-sm"/>
    <text x="1244.00" y="142.85" class="text-base text-property">ContactTitle</text>
    <use href="#icon-Property" x="1224.00" y="150.00" class="icon-sm"/>
    <text x="1244.00" y="160.85" class="text-base text-property">Address</text>
    <use href="#icon-Property" x="1224.00" y="168.00" class="icon-sm"/>
    <text x="1244.00" y="178.85" class="text-base text-property">City</text>
    <use href="#icon-Property" x="1224.00" y="186.00" class="icon-sm"/>
    <text x="1244.00" y="196.85" class="text-base text-property">Region</text>
    <use href="#icon-Property" x="1224.00" y="204.00" class="icon-sm"/>
    <text x="1244.00" y="214.85" class="text-base text-property">PostalCode</text>
    <use href="#icon-Property" x="1224.00" y="222.00" class="icon-sm"/>
    <text x="1244.00" y="232.85" class="text-base text-property">Country</text>
    <use href="#icon-Property" x="1224.00" y="240.00" class="icon-sm"/>
    <text x="1244.00" y="250.85" class="text-base text-property">Phone</text>
    <use href="#icon-Property" x="1224.00" y="258.00" class="icon-sm"/>
    <text x="1244.00" y="268.85" class="text-base text-property">Fax</text>
    <use href="#icon-Property" x="1224.00" y="276.00" class="icon-sm"/>
    <text x="1244.00" y="286.85" class="text-base text-property">HomePage</text>
    <rect x="1220.00" y="292.00" width="144.00" class="header-compartment"/>
    <use href="#icon-Collapse" x="1222.00" y="297.00" class="icon-sm"/>
    <text x="1240.00" y="307.85" class="text-base text-compartment">Navigation Properties</text>
    <rect x="1220.00" y="316.00" width="144.00" height="22.00" fill="#FFFFFF"/>
    <line x1="1220.00" y1="316.00" x2="1364.00" y2="316.00" stroke="#000000" stroke-width="1" stroke-opacity="0.3"/>
    <use href="#icon-NavigationProperty" x="1224.00" y="320.00" class="icon-sm"/>
    <text x="1244.00" y="330.85" class="text-base text-property">Products</text>
  </g>
  <g id="entity_Territory" class="entity-shape">
    <rect x="20.00" y="212.00" width="144.00" height="190.11" rx="3.00" fill="#800080" stroke="#CC00CC" stroke-width="1"/>
    <path d="M 23.00 212.00 L 161.00 212.00 L 161.00 242.00 L 23.00 242.00 Z" fill="#000000" fill-opacity="0.2"/>
    <text x="48.00" y="231.20" fill="#FFFFFF" class="text-base text-entity">Territory</text>
    <use href="#icon-Class" x="28.00" y="219.00" class="icon"/>
    <rect x="20.00" y="242.00" width="144.00" class="header-compartment"/>
    <use href="#icon-Collapse" x="22.00" y="247.00" class="icon-sm"/>
    <text x="40.00" y="257.85" class="text-base text-compartment">Properties</text>
    <rect x="20.00" y="266.00" width="144.00" height="58.00" fill="#FFFFFF"/>
    <line x1="20.00" y1="266.00" x2="164.00" y2="266.00" stroke="#000000" stroke-width="1" stroke-opacity="0.3"/>
    <use href="#icon-PropertyKey" x="24.00" y="270.00" class="icon-sm"/>
    <text x="44.00" y="280.85" class="text-base text-property">TerritoryID</text>
    <use href="#icon-Property" x="24.00" y="288.00" class="icon-sm"/>
    <text x="44.00" y="298.85" class="text-base text-property">TerritoryDescription</text>
    <use href="#icon-Property" x="24.00" y="306.00" class="icon-sm"/>
    <text x="44.00" y="316.85" class="text-base text-property">RegionID</text>
    <rect x="20.00" y="322.00" width="144.00" class="header-compartment"/>
    <use href="#icon-Collapse" x="22.00" y="327.00" class="icon-sm"/>
    <text x="40.00" y="337.85" class="text-base text-compartment">Navigation Properties</text>
    <rect x="20.00" y="346.00" width="144.00" height="40.00" fill="#FFFFFF"/>
    <line x1="20.00" y1="346.00" x2="164.00" y2="346.00" stroke="#000000" stroke-width="1" stroke-opacity="0.3"/>
    <use href="#icon-NavigationProperty" x="24.00" y="350.00" class="icon-sm"/>
    <text x="44.00" y="360.85" class="text-base text-property">Region</text>
    <use href="#icon-NavigationProperty" x="24.00" y="368.00" class="icon-sm"/>
    <text x="44.00" y="378.85" class="text-base text-property">Employees</text>
  </g>
  <g id="entity_Category" class="entity-shape">
    <rect x="1220.00" y="428.00" width="144.00" height="190.11" rx="3.00" fill="#00C0C0" stroke="#0EFFFF" stroke-width="1"/>
    <path d="M 1223.00 428.00 L 1361.00 428.00 L 1361.00 458.00 L 1223.00 458.00 Z" fill="#000000" fill-opacity="0.2"/>
    <text x="1248.00" y="447.20" fill="#FFFFFF" class="text-base text-entity">Category</text>
    <use href="#icon-Class" x="1228.00" y="435.00" class="icon"/>
    <rect x="1220.00" y="458.00" width="144.00" class="header-compartment"/>
    <use href="#icon-Collapse" x="1222.00" y="463.00" class="icon-sm"/>
    <text x="1240.00" y="473.85" class="text-base text-compartment">Properties</text>
    <rect x="1220.00" y="482.00" width="144.00" height="76.00" fill="#FFFFFF"/>
    <line x1="1220.00" y1="482.00" x2="1364.00" y2="482.00" stroke="#000000" stroke-width="1" stroke-opacity="0.3"/>
    <use href="#icon-PropertyKey" x="1224.00" y="486.00" class="icon-sm"/>
    <text x="1244.00" y="496.85" class="text-base text-property">CategoryID</text>
    <use href="#icon-Property" x="1224.00" y="504.00" class="icon-sm"/>
    <text x="1244.00" y="514.85" class="text-base text-property">CategoryName</text>
    <use href="#icon-Property" x="1224.00" y="522.00" class="icon-sm"/>
    <text x="1244.00" y="532.85" class="text-base text-property">Description</text>
    <use href="#icon-Property" x="1224.00" y="540.00" class="icon-sm"/>
    <text x="1244.00" y="550.85" class="text-base text-property">Picture</text>
    <rect x="1220.00" y="556.00" width="144.00" class="header-compartment"/>
    <use href="#icon-Collapse" x="1222.00" y="561.00" class="icon-sm"/>
    <text x="1240.00" y="571.85" class="text-base text-compartment">Navigation Properties</text>
    <rect x="1220.00" y="580.00" width="144.00" height="22.00" fill="#FFFFFF"/>
    <line x1="1220.00" y1="580.00" x2="1364.00" y2="580.00" stroke="#000000" stroke-width="1" stroke-opacity="0.3"/>
    <use href="#icon-NavigationProperty" x="1224.00" y="584.00" class="icon-sm"/>
    <text x="1244.00" y="594.85" class="text-base text-property">Products</text>
  </g>
  <g id="entity_Customer" class="entity-shape">
    <rect x="740.00" y="452.00" width="144.00" height="319.33" rx="3.00" fill="#007ACC" stroke="#1AA3FF" stroke-width="1"/>
    <path d="M 743.00 452.00 L 881.00 452.00 L 881.00 482.00 L 743.00 482.00 Z" fill="#000000" fill-opacity="0.2"/>
    <text x="768.00" y="471.20" fill="#FFFFFF" class="text-base text-entity">Customer</text>
    <use href="#icon-Class" x="748.00" y="459.00" class="icon"/>
    <rect x="740.00" y="482.00" width="144.00" class="header-compartment"/>
    <use href="#icon-Collapse" x="742.00" y="487.00" class="icon-sm"/>
    <text x="760.00" y="497.85" class="text-base text-compartment">Properties</text>
    <rect x="740.00" y="506.00" width="144.00" height="202.00" fill="#FFFFFF"/>
    <line x1="740.00" y1="506.00" x2="884.00" y2="506.00" stroke="#000000" stroke-width="1" stroke-opacity="0.3"/>
    <use href="#icon-PropertyKey" x="744.00" y="510.00" class="icon-sm"/>
    <text x="764.00" y="520.85" class="text-base text-property">CustomerID</text>
    <use href="#icon-Property" x="744.00" y="528.00" class="icon-sm"/>
    <text x="764.00" y="538.85" class="text-base text-property">CompanyName</text>
    <use href="#icon-Property" x="744.00" y="546.00" class="icon-sm"/>
    <text x="764.00" y="556.85" class="text-base text-property">ContactName</text>
    <use href="#icon-Property" x="744.00" y="564.00" class="icon-sm"/>
    <text x="764.00" y="574.85" class="text-base text-property">ContactTitle</text>
    <use href="#icon-Property" x="744.00" y="582.00" class="icon-sm"/>
    <text x="764.00" y="592.85" class="text-base text-property">Address</text>
    <use href="#icon-Property" x="744.00" y="600.00" class="icon-sm"/>
    <text x="764.00" y="610.85" class="text-base text-property">City</text>
    <use href="#icon-Property" x="744.00" y="618.00" class="icon-sm"/>
    <text x="764.00" y="628.85" class="text-base text-property">Region</text>
    <use href="#icon-Property" x="744.00" y="636.00" class="icon-sm"/>
    <text x="764.00" y="646.85" class="text-base text-property">PostalCode</text>
    <use href="#icon-Property" x="744.00" y="654.00" class="icon-sm"/>
    <text x="764.00" y="664.85" class="text-base text-property">Country</text>
    <use href="#icon-Property" x="744.00" y="672.00" class="icon-sm"/>
    <text x="764.00" y="682.85" class="text-base text-property">Phone</text>
    <use href="#icon-Property" x="744.00" y="690.00" class="icon-sm"/>
    <text x="764.00" y="700.85" class="text-base text-property">Fax</text>
    <rect x="740.00" y="706.00" width="144.00" class="header-compartment"/>
    <use href="#icon-Collapse" x="742.00" y="711.00" class="icon-sm"/>
    <text x="760.00" y="721.85" class="text-base text-compartment">Navigation Properties</text>
    <rect x="740.00" y="730.00" width="144.00" height="22.00" fill="#FFFFFF"/>
    <line x1="740.00" y1="730.00" x2="884.00" y2="730.00" stroke="#000000" stroke-width="1" stroke-opacity="0.3"/>
    <use href="#icon-NavigationProperty" x="744.00" y="734.00" class="icon-sm"/>
    <text x="764.00" y="744.85" class="text-base text-property">Orders</text>
  </g>
  <g id="entity_Employee" class="entity-shape">
    <rect x="260.00" y="116.00" width="144.00" height="503.94" rx="3.00" fill="#800080" stroke="#CC00CC" stroke-width="1"/>
    <path d="M 263.00 116.00 L 401.00 116.00 L 401.00 146.00 L 263.00 146.00 Z" fill="#000000" fill-opacity="0.2"/>
    <text x="288.00" y="135.20" fill="#FFFFFF" class="text-base text-entity">Employee</text>
    <use href="#icon-Class" x="268.00" y="123.00" class="icon"/>
    <rect x="260.00" y="146.00" width="144.00" class="header-compartment"/>
    <use href="#icon-Collapse" x="262.00" y="151.00" class="icon-sm"/>
    <text x="280.00" y="161.85" class="text-base text-compartment">Properties</text>
    <rect x="260.00" y="170.00" width="144.00" height="328.00" fill="#FFFFFF"/>
    <line x1="260.00" y1="170.00" x2="404.00" y2="170.00" stroke="#000000" stroke-width="1" stroke-opacity="0.3"/>
    <use href="#icon-PropertyKey" x="264.00" y="174.00" class="icon-sm"/>
    <text x="284.00" y="184.85" class="text-base text-property">EmployeeID</text>
    <use href="#icon-Property" x="264.00" y="192.00" class="icon-sm"/>
    <text x="284.00" y="202.85" class="text-base text-property">LastName</text>
    <use href="#icon-Property" x="264.00" y="210.00" class="icon-sm"/>
    <text x="284.00" y="220.85" class="text-base text-property">FirstName</text>
    <use href="#icon-Property" x="264.00" y="228.00" class="icon-sm"/>
    <text x="284.00" y="238.85" class="text-base text-property">Title</text>
    <use href="#icon-Property" x="264.00" y="246.00" class="icon-sm"/>
    <text x="284.00" y="256.85" class="text-base text-property">TitleOfCourtesy</text>
    <use href="#icon-Property" x="264.00" y="264.00" class="icon-sm"/>
    <text x="284.00" y="274.85" class="text-base text-property">BirthDate</text>
    <use href="#icon-Property" x="264.00" y="282.00" class="icon-sm"/>
    <text x="284.00" y="292.85" class="text-base text-property">HireDate</text>
    <use href="#icon-Property" x="264.00" y="300.00" class="icon-sm"/>
    <text x="284.00" y="310.85" class="text-base text-property">Address</text>
    <use href="#icon-Property" x="264.00" y="318.00" class="icon-sm"/>
    <text x="284.00" y="328.85" class="text-base text-property">City</text>
    <use href="#icon-Property" x="264.00" y="336.00" class="icon-sm"/>
    <text x="284.00" y="346.85" class="text-base text-property">Region</text>
    <use href="#icon-Property" x="264.00" y="354.00" class="icon-sm"/>
    <text x="284.00" y="364.85" class="text-base text-property">PostalCode</text>
    <use href="#icon-Property" x="264.00" y="372.00" class="icon-sm"/>
    <text x="284.00" y="382.85" class="text-base text-property">Country</text>
    <use href="#icon-Property" x="264.00" y="390.00" class="icon-sm"/>
    <text x="284.00" y="400.85" class="text-base text-property">HomePhone</text>
    <use href="#icon-Property" x="264.00" y="408.00" class="icon-sm"/>
    <text x="284.00" y="418.85" class="text-base text-property">Extension</text>
    <use href="#icon-Property" x="264.00" y="426.00" class="icon-sm"/>
    <text x="284.00" y="436.85" class="text-base text-property">Photo</text>
    <use href="#icon-Property" x="264.00" y="444.00" class="icon-sm"/>
    <text x="284.00" y="454.85" class="text-base text-property">Notes</text>
    <use href="#icon-Property" x="264.00" y="462.00" class="icon-sm"/>
    <text x="284.00" y="472.85" class="text-base text-property">ReportsTo</text>
    <use href="#icon-Property" x="264.00" y="480.00" class="icon-sm"/>
    <text x="284.00" y="490.85" class="text-base text-property">PhotoPath</text>
    <rect x="260.00" y="496.00" width="144.00" class="header-compartment"/>
    <use href="#icon-Collapse" x="262.00" y="501.00" class="icon-sm"/>
    <text x="280.00" y="511.85" class="text-base text-compartment">Navigation Properties</text>
    <rect x="260.00" y="520.00" width="144.00" height="76.00" fill="#FFFFFF"/>
    <line x1="260.00" y1="520.00" x2="404.00" y2="520.00" stroke="#000000" stroke-width="1" stroke-opacity="0.3"/>
    <use href="#icon-NavigationProperty" x="264.00" y="524.00" class="icon-sm"/>
    <text x="284.00" y="534.85" class="text-base text-property">EmployeesReportingTo</text>
    <use href="#icon-NavigationProperty" x="264.00" y="542.00" class="icon-sm"/>
    <text x="284.00" y="552.85" class="text-base text-property">EmployeeReportsTo</text>
    <use href="#icon-NavigationProperty" x="264.00" y="560.00" class="icon-sm"/>
    <text x="284.00" y="570.85" class="text-base text-property">Orders</text>
    <use href="#icon-NavigationProperty" x="264.00" y="578.00" class="icon-sm"/>
    <text x="284.00" y="588.85" class="text-base text-property">Territories</text>
  </g>
</svg>
